<svg xmlns="http://www.w3.org/2000/svg" viewBox="0 0 512 512">
  <rect width="512" height="512" rx="104" fill="#eff8ff"/>
  <path d="M250 134c-22-32-78-19-78 24 0 6 1 12 4 17-28 4-49 28-49 57 0 17 8 33 20 44-13 10-20 25-20 42 0 30 24 54 54 54 11 0 22-4 31-10 10 22 38 28 56 12V138c-6 2-12 1-18-4Z" fill="none" stroke="#0284c7" stroke-width="28" stroke-linecap="round" stroke-linejoin="round"/>
  <path d="M262 134c22-32 78-19 78 24 0 6-1 12-4 17 28 4 49 28 49 57 0 17-8 33-20 44 13 10 20 25 20 42 0 30-24 54-54 54-11 0-22-4-31-10-10 22-38 28-56 12V138c6 2 12 1 18-4Z" fill="none" stroke="#0284c7" stroke-width="28" stroke-linecap="round" stroke-linejoin="round"/>
</svg>
